<svg xmlns="http://www.w3.org/2000/svg" viewBox="0 0 20 20" width="20" height="20">
    <path d="M9.191 12.941c-0.242 0.246 -0.641 0.246 -0.883 0l-2.5 -2.5c-0.246 -0.242 -0.246 -0.641 0 -0.883 0.242 -0.246 0.641 -0.246 0.883 0l2.059 2.059 4.559 -4.559c0.242 -0.246 0.641 -0.246 0.883 0 0.246 0.242 0.246 0.641 0 0.883zM20 10c0 5.523 -4.477 10 -10 10S0 15.523 0 10 4.477 0 10 0s10 4.477 10 10M10 1.25C5.168 1.25 1.25 5.168 1.25 10s3.918 8.75 8.75 8.75 8.75 -3.918 8.75 -8.75S14.832 1.25 10 1.25"/>
</svg>