<svg xmlns="http://www.w3.org/2000/svg" viewBox="0 0 20 20" width="20" height="20">
    <path d="M7.059 7.059c0.242 -0.246 0.641 -0.246 0.883 0l2.059 2.059 2.059 -2.059c0.242 -0.246 0.641 -0.246 0.883 0 0.246 0.242 0.246 0.641 0 0.883L10.883 10l2.059 2.059c0.246 0.242 0.246 0.641 0 0.883 -0.242 0.246 -0.641 0.246 -0.883 0L10 10.883l-2.059 2.059c-0.242 0.246 -0.641 0.246 -0.883 0 -0.246 -0.242 -0.246 -0.641 0 -0.883l2.059 -2.059 -2.059 -2.059c-0.246 -0.242 -0.246 -0.641 0 -0.883M20 10c0 5.523 -4.477 10 -10 10S0 15.523 0 10 4.477 0 10 0s10 4.477 10 10M10 1.25C5.168 1.25 1.25 5.168 1.25 10s3.918 8.75 8.75 8.75 8.75 -3.918 8.75 -8.75S14.832 1.25 10 1.25"/>
</svg>