<svg xmlns="http://www.w3.org/2000/svg" viewBox="0 0 20 20" width="20" height="20">
    <path d="M0 10C0 4.477 4.477 0 10 0s10 4.477 10 10 -4.477 10 -10 10S0 15.523 0 10m6.836 -1.871 1.84 1.836L6.836 11.836c-0.363 0.367 -0.363 0.961 0 1.293 0.367 0.398 0.961 0.398 1.293 0l1.836 -1.805 1.871 1.805c0.367 0.398 0.961 0.398 1.293 0 0.398 -0.332 0.398 -0.926 0 -1.293l-1.805 -1.871 1.805 -1.836c0.398 -0.332 0.398 -0.926 0 -1.293 -0.332 -0.363 -0.926 -0.363 -1.293 0l-1.871 1.84 -1.836 -1.84c-0.332 -0.363 -0.926 -0.363 -1.293 0 -0.363 0.367 -0.363 0.961 0 1.293" class="fa-secondary"/>
</svg>