<svg xmlns="http://www.w3.org/2000/svg" viewBox="0 0 19.5 19.5" width="19.5" height="19.5">
    <defs>
        <style>
            .fa-secondary{opacity:.4}
        </style>
    </defs>
    <path d="M3.656 13.406H1.219l-0.609 2.438 3.047 3.047 2.438 -0.609v-2.438H3.656zM18.967 2.828l-0.004 -0.004L16.673 0.533a1.832 1.832 0 0 0 -2.586 0l-1.756 1.756a0.457 0.457 0 0 0 0 0.647l4.228 4.228a0.457 0.457 0 0 0 0.647 0l1.756 -1.756a1.825 1.825 0 0 0 0.005 -2.58z" class="fa-secondary"/>
    <path d="M0.014 18.428a0.914 0.914 0 0 0 0.742 1.059 0.924 0.924 0 0 0 0.317 0l2.564 -0.615 -3.009 -3.009zM15.703 8.028l-4.228 -4.228a0.462 0.462 0 0 0 -0.651 0L1.219 13.406h2.438v2.438h2.438v2.438l9.608 -9.607a0.457 0.457 0 0 0 0.001 -0.646z" class="fa-primary"/>
</svg>