<svg xmlns="http://www.w3.org/2000/svg" viewBox="0 0 10 14.546" width="10" height="14.546">
    <defs>
        <style>
            .fa-secondary{opacity:.4}
        </style>
    </defs>
    <path fill="#777777" d="M0.261 10.116a0.894 0.894 0 0 0 0 1.264l0.631 0.631a0.894 0.894 0 0 0 1.264 0l2.843 -2.843 -1.896 -1.896Zm9.477 -6.949 -0.631 -0.631a0.894 0.894 0 0 0 -1.264 0l-2.843 2.843 1.896 1.896 2.843 -2.843a0.894 0.894 0 0 0 0 -1.264Z" class="fa-secondary"/>
    <path fill="#99a1b7" d="M9.739 10.116a0.894 0.894 0 0 1 0 1.264l-0.631 0.631a0.894 0.894 0 0 1 -1.264 0L0.261 4.43a0.894 0.894 0 0 1 0 -1.264l0.631 -0.631a0.894 0.894 0 0 1 1.264 0Z" class="fa-primary"/>
</svg>
