<svg xmlns="http://www.w3.org/2000/svg" viewBox="0 0 17.063 19.501" width="17.063" height="19.501">
    <path class="fa-primary" style="fill:var(--fa-primary-color,inherit);opacity:var(--fa-primary-opacity,1);" d="M6.239 0c-0.461 0 -0.884 0.259 -1.089 0.674L4.875 1.219H1.219C0.545 1.219 0 1.763 0 2.438s0.545 1.219 1.219 1.219h14.625c0.674 0 1.219 -0.545 1.219 -1.219s-0.545 -1.219 -1.219 -1.219h-3.656l-0.274 -0.545C11.708 0.259 11.285 0 10.824 0H6.239z"/>
    <path class="fa-secondary" style="fill:var(--fa-secondary-color,inherit);opacity:var(--fa-secondary-opacity,.4);" d="M15.844 3.656H1.219v13.407c0 1.344 1.093 2.438 2.438 2.438h9.75c1.344 0 2.438 -1.093 2.438 -2.438V3.656zm-10.36 3.047v8.531c0 0.335 -0.274 0.609 -0.609 0.609s-0.609 -0.274 -0.609 -0.609V6.703c0 -0.335 0.274 -0.609 0.609 -0.609s0.609 0.274 0.609 0.609zm3.656 0v8.531c0 0.335 -0.274 0.609 -0.609 0.609s-0.609 -0.274 -0.609 -0.609V6.703c0 -0.335 0.274 -0.609 0.609 -0.609s0.609 0.274 0.609 0.609zm3.656 0v8.531c0 0.335 -0.274 0.609 -0.609 0.609s-0.609 -0.274 -0.609 -0.609V6.703c0 -0.335 0.274 -0.609 0.609 -0.609s0.609 0.274 0.609 0.609z"/>
</svg>