<?xml version="1.0" standalone="no"?>
<!DOCTYPE svg PUBLIC "-//W3C//DTD SVG 20010904//EN"
 "http://www.w3.org/TR/2001/REC-SVG-20010904/DTD/svg10.dtd">
<svg version="1.0" xmlns="http://www.w3.org/2000/svg"
 width="248.000000pt" height="203.000000pt" viewBox="0 0 248.000000 203.000000"
 preserveAspectRatio="xMidYMid meet">

<g transform="translate(0.000000,203.000000) scale(0.100000,-0.100000)"
fill="#000000" stroke="none">
<path d="M37 2023 c24 -2 62 -2 85 0 24 2 5 4 -42 4 -47 0 -66 -2 -43 -4z"/>
<path d="M2325 2025 c25 -8 155 -11 155 -4 0 5 -37 9 -82 8 -46 0 -78 -2 -73
-4z"/>
<path d="M657 1833 c-13 -13 -7 -31 13 -36 16 -4 20 0 20 19 0 23 -18 32 -33
17z"/>
<path d="M744 1803 c2 -10 11 -18 22 -18 10 0 20 8 22 18 3 12 -3 17 -21 17
-18 0 -25 -5 -23 -17z"/>
<path d="M840 1790 c0 -13 7 -20 20 -20 13 0 20 7 20 20 0 13 -7 20 -20 20
-13 0 -20 -7 -20 -20z"/>
<path d="M1802 1801 c-11 -6 -10 -11 3 -25 22 -21 12 -33 -12 -15 -17 12 -17
12 -1 -5 9 -10 21 -15 27 -12 14 9 14 36 1 36 -5 0 -10 5 -10 11 0 6 7 8 16 5
8 -3 12 -2 9 4 -7 12 -16 12 -33 1z"/>
<path d="M1853 1790 c1 -11 4 -20 8 -20 11 0 29 27 22 33 -14 14 -32 6 -30
-13z"/>
<path d="M1900 1780 c0 -6 -4 -9 -9 -6 -5 3 -12 -1 -15 -9 -5 -13 -2 -14 16
-4 18 10 24 8 35 -7 7 -10 13 -14 13 -10 0 5 9 -2 21 -15 16 -19 18 -20 10 -4
-15 32 -71 75 -71 55z"/>
<path d="M1763 1723 c0 -22 15 -43 31 -43 6 0 3 5 -6 11 -10 5 -18 15 -18 20
0 6 6 7 13 3 8 -5 8 -2 -2 9 -17 21 -18 21 -18 0z"/>
<path d="M1890 1725 c-7 -8 -10 -22 -6 -31 4 -11 1 -14 -12 -10 -25 8 -43 -6
-32 -24 8 -13 10 -12 10 2 0 14 8 16 43 13 23 -2 34 -1 24 2 -9 2 -15 9 -12
14 4 5 1 9 -4 9 -6 0 -11 5 -11 11 0 5 5 7 12 3 6 -4 8 -3 4 4 -3 5 0 13 6 15
8 4 9 6 2 6 -6 1 -17 -6 -24 -14z"/>
<path d="M1720 1715 c0 -8 4 -15 10 -15 5 0 7 7 4 15 -4 8 -8 15 -10 15 -2 0
-4 -7 -4 -15z"/>
<path d="M1839 1721 c11 -7 11 -10 0 -15 -9 -3 -6 -5 5 -3 28 3 30 22 4 24
-16 2 -19 0 -9 -6z"/>
<path d="M980 1680 c0 -11 7 -20 15 -20 8 0 15 9 15 20 0 11 -7 20 -15 20 -8
0 -15 -9 -15 -20z"/>
<path d="M1711 1674 c0 -11 3 -14 6 -6 3 7 2 16 -1 19 -3 4 -6 -2 -5 -13z"/>
<path d="M1940 1670 c-13 -11 -18 -20 -12 -20 7 0 21 9 32 20 11 11 16 20 12
20 -5 0 -19 -9 -32 -20z"/>
<path d="M1796 1670 c-18 -6 -18 -7 4 -13 28 -7 32 -6 22 9 -4 6 -16 8 -26 4z"/>
<path d="M1763 1645 c0 -8 4 -12 9 -9 5 3 6 10 3 15 -9 13 -12 11 -12 -6z"/>
<path d="M1795 1641 c4 -8 2 -17 -6 -22 -9 -6 -10 -9 -2 -9 19 0 27 21 13 33
-10 9 -11 9 -5 -2z"/>
<path d="M1964 1636 c-4 -11 -13 -15 -28 -10 -21 6 -21 6 -1 -9 18 -14 21 -13
33 5 8 10 11 22 8 25 -3 3 -8 -2 -12 -11z"/>
<path d="M1820 1605 c0 -19 4 -35 8 -35 4 0 6 16 4 35 -2 19 -6 35 -8 35 -2 0
-4 -16 -4 -35z"/>
<path d="M1434 1617 c-12 -14 -3 -50 15 -62 16 -9 48 3 55 21 15 39 -42 73
-70 41z"/>
<path d="M1744 1603 c4 -4 16 -8 28 -10 28 -4 18 6 -12 12 -12 2 -20 1 -16 -2z"/>
<path d="M1870 1569 c0 -5 9 -9 20 -9 11 0 20 2 20 4 0 2 -9 6 -20 9 -11 3
-20 1 -20 -4z"/>
<path d="M2146 1482 l-238 -36 6 -65 c9 -90 16 -111 33 -111 11 0 13 7 8 29
-5 26 -3 29 26 35 57 11 69 8 69 -19 0 -17 6 -25 17 -25 14 0 376 51 380 54 1
1 -4 39 -11 86 -10 73 -15 85 -31 86 -11 1 -127 -14 -259 -34z"/>
<path d="M398 1323 c-81 -50 -46 -173 49 -173 94 0 127 132 44 175 -38 19 -59
19 -93 -2z m85 -18 c-3 -9 -8 -14 -10 -11 -3 3 -2 9 2 15 9 16 15 13 8 -4z
m-10 -33 c20 -22 12 -58 -13 -65 -21 -5 -50 21 -50 46 0 14 24 36 41 37 3 0
13 -8 22 -18z m42 -52 c3 -6 -1 -7 -9 -4 -18 7 -21 14 -7 14 6 0 13 -4 16 -10z"/>
<path d="M2393 1313 c9 -2 23 -2 30 0 6 3 -1 5 -18 5 -16 0 -22 -2 -12 -5z"/>
<path d="M2328 1303 c6 -2 18 -2 25 0 6 3 1 5 -13 5 -14 0 -19 -2 -12 -5z"/>
<path d="M1353 1250 c-17 -10 -37 -28 -42 -39 -7 -12 -11 -88 -11 -186 l0
-167 29 -28 c49 -50 105 -52 158 -6 l28 24 3 171 c2 113 0 177 -8 191 -15 28
-69 60 -100 60 -14 0 -39 -9 -57 -20z m87 -69 c5 -11 10 -80 10 -155 0 -109
-3 -138 -16 -150 -8 -9 -21 -16 -28 -16 -31 0 -36 25 -36 170 0 150 5 170 42
170 9 0 22 -9 28 -19z"/>
<path d="M1643 1254 c-53 -27 -63 -63 -63 -223 0 -160 10 -200 59 -225 48 -25
87 -20 127 17 l35 32 1 100 c0 55 -3 101 -6 103 -3 1 -28 2 -56 2 l-50 0 0
-35 c0 -29 4 -35 20 -35 19 0 21 -5 18 -56 -3 -64 -23 -88 -55 -68 -16 10 -18
29 -18 164 0 135 2 154 18 164 26 17 51 -5 57 -50 4 -35 8 -39 36 -42 27 -3
32 1 37 24 18 95 -76 171 -160 128z"/>
<path d="M760 1030 l0 -230 84 0 c74 0 88 3 111 23 49 42 52 152 5 202 -17 19
-19 23 -6 28 25 10 40 77 26 125 -16 61 -54 82 -147 82 l-73 0 0 -230z m138
148 c17 -17 15 -74 -4 -93 -9 -9 -26 -15 -38 -13 -18 3 -21 11 -24 61 -3 57
-3 57 26 57 15 0 33 -5 40 -12z m10 -195 c13 -18 16 -71 4 -90 -10 -15 -53
-31 -69 -26 -14 5 -19 124 -6 137 11 11 56 -3 71 -21z"/>
<path d="M1060 1030 l0 -230 95 0 95 0 0 35 0 35 -60 0 -60 0 0 195 0 195 -35
0 -35 0 0 -230z"/>
<path d="M2193 1121 c-24 -4 -46 -11 -50 -15 -8 -8 65 0 127 14 l35 8 -35 0
c-19 0 -54 -4 -77 -7z"/>
<path d="M371 1064 c0 -11 3 -14 6 -6 3 7 2 16 -1 19 -3 4 -6 -2 -5 -13z"/>
<path d="M492 1068 c-18 -18 -15 -35 10 -58 20 -19 23 -19 40 -3 28 25 20 67
-12 71 -14 2 -31 -3 -38 -10z"/>
<path d="M148 916 c-57 -21 -88 -60 -88 -113 0 -23 -6 -31 -30 -40 l-30 -11 0
-91 c0 -90 0 -91 21 -81 11 7 27 9 35 6 8 -3 27 3 42 14 36 27 81 15 102 -26
24 -47 57 -77 75 -70 9 3 14 10 11 15 -3 5 2 8 11 7 9 0 18 5 21 13 3 9 0 11
-8 6 -9 -5 -11 -4 -6 4 6 9 14 8 32 -3 26 -18 62 -20 84 -6 8 5 13 10 10 11
-34 6 -43 8 -48 13 -3 3 0 6 7 6 7 0 9 5 5 13 -4 6 2 4 14 -6 12 -11 26 -16
33 -11 7 4 29 6 49 6 81 -3 123 99 64 153 -15 14 -35 25 -44 25 -11 0 -20 10
-23 29 -7 31 -47 81 -66 81 -7 0 -9 -5 -5 -12 4 -7 3 -8 -5 -4 -6 4 -9 10 -7
14 2 4 -2 13 -10 20 -8 7 -14 9 -14 5 0 -5 -14 -14 -32 -21 -30 -11 -34 -10
-64 23 -17 19 -38 35 -45 35 -8 0 -23 2 -34 5 -11 3 -37 -1 -57 -9z"/>
<path d="M540 880 c0 -5 5 -10 11 -10 5 0 7 5 4 10 -3 6 -8 10 -11 10 -2 0 -4
-4 -4 -10z"/>
<path d="M575 820 c3 -5 8 -10 11 -10 2 0 4 5 4 10 0 6 -5 10 -11 10 -5 0 -7
-4 -4 -10z"/>
<path d="M1865 754 c-18 -19 -16 -33 7 -48 12 -7 21 -6 32 3 22 18 20 38 -3
51 -15 7 -24 6 -36 -6z"/>
<path d="M710 700 c0 -5 5 -10 11 -10 5 0 7 5 4 10 -3 6 -8 10 -11 10 -2 0 -4
-4 -4 -10z"/>
<path d="M1472 677 c-29 -30 -28 -62 2 -92 14 -14 27 -35 29 -47 l4 -23 2 23
c1 15 7 22 20 22 11 0 30 13 44 30 l25 29 83 -20 c45 -11 87 -18 92 -16 5 1
-26 11 -69 21 -112 25 -114 26 -114 42 0 24 -38 54 -68 54 -17 0 -37 -10 -50
-23z m75 -23 c4 -10 -1 -22 -11 -29 -13 -10 -14 -14 -4 -18 7 -3 1 -6 -14 -6
-34 -1 -35 5 -5 30 19 16 20 20 7 29 -13 8 -12 10 3 10 10 0 20 -7 24 -16z"/>
<path d="M2210 606 c0 -2 8 -10 18 -17 15 -13 16 -12 3 4 -13 16 -21 21 -21
13z"/>
<path d="M704 581 c-68 -29 -86 -126 -35 -183 26 -29 36 -33 79 -33 40 0 56 5
76 24 72 68 35 187 -60 197 -21 2 -49 0 -60 -5z m56 -31 c0 -5 6 -7 13 -5 43
16 72 -88 33 -121 -12 -10 -21 -16 -22 -14 0 3 -9 -2 -19 -10 -13 -11 -19 -12
-22 -3 -2 7 -10 10 -16 8 -7 -3 -20 2 -30 9 -22 17 -31 95 -11 103 8 3 14 12
14 20 0 9 6 13 15 10 8 -4 17 -2 20 3 8 13 25 13 25 0z"/>
<path d="M724 485 c-8 -20 4 -35 26 -35 23 0 32 13 24 34 -8 20 -43 21 -50 1z"/>
<path d="M1805 571 c11 -5 40 -11 65 -15 30 -4 36 -3 20 3 -37 12 -109 22 -85
12z"/>
<path d="M2396 567 c3 -10 9 -15 12 -12 3 3 0 11 -7 18 -10 9 -11 8 -5 -6z"/>
<path d="M1560 547 c3 -3 64 -20 135 -37 72 -17 138 -33 148 -36 9 -3 17 -2
17 3 0 4 -57 20 -128 36 -70 15 -138 30 -152 34 -14 3 -23 3 -20 0z"/>
<path d="M1911 489 c-7 -33 -10 -63 -8 -65 2 -3 10 23 16 57 7 33 10 63 8 65
-2 3 -10 -23 -16 -57z"/>
<path d="M1442 490 c-14 -23 -16 -44 -3 -36 16 10 20 -52 6 -96 -8 -24 -13
-34 -11 -22 2 12 -2 21 -10 21 -15 0 -32 -48 -41 -118 -7 -55 -2 -59 97 -82
211 -50 335 -77 354 -77 33 0 56 31 59 77 1 23 5 39 10 36 4 -2 7 4 7 14 0 10
3 29 6 43 3 15 2 20 -3 14 -6 -9 -12 -7 -23 4 -13 14 -12 15 2 9 24 -9 39 16
41 69 2 34 -3 49 -15 57 -20 14 -23 11 -31 -28 l-6 -30 12 27 c16 33 35 24 34
-17 0 -16 -2 -24 -4 -17 -3 6 -9 12 -15 12 -6 0 -8 -7 -4 -15 3 -8 0 -15 -6
-15 -7 0 -3 -7 8 -16 18 -15 18 -15 -3 -4 -15 7 -20 16 -17 28 4 12 0 10 -15
-7 -12 -13 -21 -20 -21 -17 0 4 -11 -1 -25 -10 -14 -9 -23 -19 -21 -22 3 -3
12 1 21 8 17 14 31 8 21 -8 -3 -6 -18 -9 -33 -7 -14 1 -44 -5 -67 -15 -46 -20
-129 -33 -120 -19 3 5 1 9 -5 9 -5 0 -26 17 -46 37 -20 21 -35 31 -33 23 2 -7
16 -26 31 -42 32 -33 24 -38 -10 -6 -13 12 -23 16 -23 10 0 -7 -4 -12 -8 -12
-11 0 -9 40 1 57 5 8 -6 35 -27 68 -20 30 -32 55 -27 55 5 0 11 14 15 32 7 36
-9 62 -24 38 -15 -24 -12 -34 6 -19 15 12 16 11 9 -11 -4 -14 -9 -27 -12 -30
-9 -10 -23 26 -18 48 7 27 3 28 -13 2z m57 -118 c7 -14 5 -18 -9 -18 -11 0
-16 5 -12 15 3 9 1 12 -6 7 -13 -8 -17 6 -6 17 9 8 22 0 33 -21z m-70 -82 c-1
-10 -2 -11 -6 -2 -2 6 -8 10 -12 7 -5 -2 -6 8 -3 23 5 24 6 24 13 7 4 -11 8
-27 8 -35z m0 -42 c-1 -18 -2 -19 -6 -5 -4 14 -8 16 -19 6 -14 -11 -20 1 -7
14 14 15 33 6 32 -15z m356 -8 c-3 -5 -13 -10 -21 -10 -8 0 -13 -5 -11 -11 1
-6 -5 -14 -13 -16 -13 -4 -13 -3 0 6 13 10 13 11 0 12 -8 0 -1 7 15 14 37 17
38 17 30 5z m-225 -10 c0 -5 -2 -10 -4 -10 -3 0 -8 5 -11 10 -3 6 -1 10 4 10
6 0 11 -4 11 -10z m-13 -26 c-3 -3 -12 -4 -19 -1 -8 3 -5 6 6 6 11 1 17 -2 13
-5z m-80 -20 c-3 -3 -12 -4 -19 -1 -8 3 -5 6 6 6 11 1 17 -2 13 -5z"/>
<path d="M1550 502 c0 -9 289 -76 296 -69 3 2 -39 14 -93 27 -54 12 -122 28
-150 35 -29 7 -53 10 -53 7z"/>
<path d="M1540 457 c0 -3 60 -19 133 -37 72 -17 141 -33 152 -36 15 -4 17 -3
5 4 -8 5 -67 22 -130 36 -63 15 -125 29 -137 33 -13 3 -23 3 -23 0z"/>
<path d="M1420 423 c0 -25 15 -38 25 -22 4 6 0 18 -9 27 -15 15 -16 15 -16 -5z"/>
<path d="M1604 389 c44 -11 81 -18 83 -15 5 5 -122 36 -144 35 -10 -1 18 -10
61 -20z"/>
<path d="M1005 390 c3 -5 8 -10 11 -10 2 0 4 5 4 10 0 6 -5 10 -11 10 -5 0 -7
-4 -4 -10z"/>
<path d="M1380 370 c0 -5 5 -10 10 -10 6 0 10 5 10 10 0 6 -4 10 -10 10 -5 0
-10 -4 -10 -10z"/>
</g>
</svg>
